<svg id="Layer_1" data-name="Layer 1" xmlns="http://www.w3.org/2000/svg" width="390.4" height="74.52" viewBox="0 0 390.4 74.52"><defs><style>.cls-1{fill:#f9f9f9;}.cls-2{fill:#db4437;}</style></defs><title>goods</title><path class="cls-1" d="M36.91,74.89A35.71,35.71,0,0,1,11.38,64.11,36.23,36.23,0,0,1,.64,37.66,36.29,36.29,0,0,1,11.39,11.21,35.76,35.76,0,0,1,36.91.46h.74A38.6,38.6,0,0,1,52.43,3.3a31.13,31.13,0,0,1,11.48,7.83l.32.35L57,18.7l-.35-.41a20.77,20.77,0,0,0-8.2-6,27.37,27.37,0,0,0-10.82-2.13h-.71A25.84,25.84,0,0,0,18.6,17.89c-5.08,5.2-7.66,11.85-7.66,19.78s2.58,14.57,7.66,19.74a25.79,25.79,0,0,0,18.34,7.76h.69a26.37,26.37,0,0,0,17.19-5.79c4.44-3.69,7-8.7,7.76-15.32H37.14V34.67H72l.09.39a25.37,25.37,0,0,1,.51,5.5c0,9.9-3,17.89-8.85,23.76-6.58,7-15.39,10.57-26.15,10.57Z" transform="translate(-0.63 -0.46)"/><path class="cls-1" d="M102.32,74.89A23.76,23.76,0,0,1,85,67.52c-4.8-5-7.14-11.14-7.14-18.75S80.24,35,85,30.13a24.24,24.24,0,0,1,17.37-7.47h1.4A23.49,23.49,0,0,1,121,30.14c4.73,4.83,7.13,11.1,7.13,18.63s-2.4,13.81-7.14,18.65a24.47,24.47,0,0,1-17.59,7.47h-1.09Zm.72-43a14.68,14.68,0,0,0-10,3.89l-.89.89c-2.88,3.08-4.35,7.17-4.35,12.14s1.43,9,4.37,12.16A14.57,14.57,0,0,0,103,65.62h0a15.08,15.08,0,0,0,10.31-4.07l.59-.59c2.88-3.08,4.35-7.17,4.35-12.15a17.32,17.32,0,0,0-4.37-12.16A14.8,14.8,0,0,0,103,31.89Z" transform="translate(-0.63 -0.46)"/><path class="cls-1" d="M157.22,75a24,24,0,0,1-17.44-7.47c-4.67-5-7-11.28-7-18.75s2.4-13.8,7.14-18.64a24.24,24.24,0,0,1,17.37-7.47h1.4A23.49,23.49,0,0,1,176,30.13c4.73,4.83,7.13,11.1,7.13,18.63s-2.33,13.74-7.14,18.75A24.46,24.46,0,0,1,158.35,75h-1.13Zm.72-43.09a14.68,14.68,0,0,0-10,3.89l-.85.85c-2.92,3.12-4.39,7.21-4.39,12.18s1.44,9,4.44,12.08a14.57,14.57,0,0,0,10.78,4.65h0a15.08,15.08,0,0,0,10.31-4.07l.59-.59c2.88-3.08,4.35-7.17,4.35-12.15a17.32,17.32,0,0,0-4.37-12.16A14.79,14.79,0,0,0,157.94,31.89Z" transform="translate(-0.63 -0.46)"/><path class="cls-1" d="M210.94,74.89a21.86,21.86,0,0,1-16.57-7.56,27.2,27.2,0,0,1-6.83-18.44,26.81,26.81,0,0,1,6.83-18.43,22.05,22.05,0,0,1,16.56-7.67,21.1,21.1,0,0,1,10,2.36,18.12,18.12,0,0,1,6.21,5.26l-.3-5.52V2.06h10v71.2h-9.6V67.19a18,18,0,0,1-6.37,5.42A22.51,22.51,0,0,1,210.94,74.89ZM212.14,32A13.33,13.33,0,0,0,202,36.69a17.75,17.75,0,0,0-4.28,12.06,17.55,17.55,0,0,0,4.27,12.18,14,14,0,0,0,10.53,4.74h.35A13.25,13.25,0,0,0,223,61a17.58,17.58,0,0,0,4.25-12.15A17.56,17.56,0,0,0,223,36.72,13.32,13.32,0,0,0,212.78,32h-.64Z" transform="translate(-0.63 -0.46)"/><path class="cls-1" d="M263.76,74.89A22.27,22.27,0,0,1,251.14,71a21.15,21.15,0,0,1-8-10.09l-.17-.45,8.93-3.79.18.49A14.15,14.15,0,0,0,257,63.61a11.56,11.56,0,0,0,7.13,2.28h.48A12.74,12.74,0,0,0,271.14,64c1.75-1.11,2.65-2.44,2.65-4,0-2.8-2.21-4.87-6.75-6.32l-8.17-2.09c-9.54-2.36-14.38-7.06-14.38-14a12.76,12.76,0,0,1,5.63-10.92c3.65-2.74,8.23-4.09,14-4.09h.5a22.81,22.81,0,0,1,11.25,3.07A17.11,17.11,0,0,1,283.28,34l.19.47-8.91,3.67-.19-.44a10.1,10.1,0,0,0-4.29-4.57,13.26,13.26,0,0,0-6.66-1.64,11.24,11.24,0,0,0-6,1.73c-1.75,1.1-2.57,2.34-2.57,3.88,0,2.48,2.39,4.25,7.32,5.41l7.31,1.9c9.73,2.43,14.67,7.48,14.67,15,0,4.4-1.86,8-5.69,11s-8.59,4.46-14.22,4.46Z" transform="translate(-0.63 -0.46)"/><g id="_01-cart" data-name=" 01-cart"><path class="cls-2" d="M389.92,20.86a5.64,5.64,0,0,0-4.52-2.27H316.71V29.85h61.13L374.49,41H325.72V52.27h45.39L367.7,63.63H317.57l-16.85-59A5.64,5.64,0,0,0,295.35.57L280.71.46l-.08,11.26,10.43.08,16.86,59a5.65,5.65,0,0,0,5.41,4.08h58.56a5.6,5.6,0,0,0,5.39-4l13.51-45A5.63,5.63,0,0,0,389.92,20.86Z" transform="translate(-0.63 -0.46)"/></g></svg>