<?xml version="1.0" encoding="utf-8"?>
<!-- Generator: Adobe Illustrator 24.0.2, SVG Export Plug-In . SVG Version: 6.00 Build 0)  -->
<svg version="1.1" id="Layer_1" xmlns="http://www.w3.org/2000/svg" xmlns:xlink="http://www.w3.org/1999/xlink" x="0px" y="0px"
	 viewBox="0 0 390.4 74.5" style="enable-background:new 0 0 390.4 74.5;" xml:space="preserve">
<style type="text/css">
	.st0{fill:#F9F9F9;}
	.st1{fill:#DB4437;}
</style>
<title>goods</title>
<path class="st0" d="M36.3,74.4c-9.6,0-18.8-3.9-25.5-10.8c-7-7-10.9-16.5-10.7-26.5c-0.2-9.9,3.7-19.5,10.8-26.5
	C17.5,3.9,26.7,0,36.3,0H37c5.1,0,10.1,0.9,14.8,2.8c4.4,1.7,8.3,4.4,11.5,7.8l0.3,0.4l-7.2,7.2L56,17.8c-2.2-2.6-5-4.7-8.2-6
	c-3.4-1.4-7.1-2.2-10.8-2.1h-0.7c-6.9,0-13.5,2.8-18.3,7.7c-5.1,5.2-7.7,11.9-7.7,19.8s2.6,14.6,7.7,19.7c4.8,4.9,11.4,7.7,18.3,7.8
	H37c6.2,0.2,12.3-1.9,17.2-5.8c4.4-3.7,7-8.7,7.8-15.3H36.5v-9.4h34.9l0.1,0.4c0.4,1.8,0.5,3.7,0.5,5.5c0,9.9-3,17.9-8.9,23.8
	c-6.6,7-15.4,10.6-26.2,10.6H36.3z"/>
<path class="st0" d="M101.7,74.4c-6.5,0-12.8-2.6-17.3-7.4c-4.8-5-7.1-11.1-7.1-18.8s2.4-13.8,7.1-18.6c4.5-4.7,10.8-7.4,17.4-7.5
	h1.4c6.5,0,12.8,2.7,17.2,7.5c4.7,4.8,7.1,11.1,7.1,18.6s-2.4,13.8-7.1,18.7c-4.6,4.8-11,7.5-17.6,7.5H101.7L101.7,74.4z
	 M102.4,31.4c-3.7,0-7.3,1.4-10,3.9l-0.9,0.9c-2.9,3.1-4.3,7.2-4.3,12.1s1.4,9,4.4,12.2c2.8,3,6.7,4.7,10.8,4.7l0,0
	c3.8,0,7.5-1.5,10.3-4.1l0.6-0.6c2.9-3.1,4.3-7.2,4.3-12.1c0.2-4.5-1.4-8.8-4.4-12.2C110.4,33.2,106.5,31.4,102.4,31.4L102.4,31.4z"
	/>
<path class="st0" d="M156.6,74.5c-6.6,0-12.9-2.7-17.4-7.5c-4.7-5-7-11.3-7-18.8s2.4-13.8,7.1-18.6c4.5-4.7,10.8-7.4,17.4-7.5h1.4
	c6.6,0,12.8,2.7,17.3,7.5c4.7,4.8,7.1,11.1,7.1,18.6S180.2,62,175.4,67c-4.6,4.8-11,7.5-17.6,7.5H156.6z M157.3,31.5
	c-3.7,0-7.3,1.4-10,3.9l-0.9,0.8c-2.9,3.1-4.4,7.2-4.4,12.2s1.4,9,4.4,12.1c2.8,3,6.7,4.7,10.8,4.7l0,0c3.8,0,7.5-1.5,10.3-4.1
	l0.6-0.6c2.9-3.1,4.4-7.2,4.4-12.1c0.2-4.5-1.4-8.8-4.4-12.2C165.4,33.1,161.4,31.4,157.3,31.5L157.3,31.5z"/>
<path class="st0" d="M210.3,74.4c-6.4,0-12.4-2.7-16.6-7.6c-4.5-5.1-6.9-11.7-6.8-18.4c-0.1-6.8,2.3-13.4,6.8-18.4
	c4.2-4.8,10.2-7.6,16.6-7.7c3.5,0,6.9,0.8,10,2.4c2.4,1.3,4.6,3.1,6.2,5.3l-0.3-5.5V1.6h10v71.2h-9.6v-6.1c-1.7,2.3-3.9,4.1-6.4,5.4
	C217.1,73.7,213.8,74.4,210.3,74.4z M211.5,31.5c-3.9,0-7.6,1.7-10.1,4.7c-2.9,3.3-4.4,7.6-4.3,12.1c-0.2,4.5,1.4,8.8,4.3,12.2
	c2.7,3,6.5,4.7,10.5,4.7h0.4c3.9,0,7.6-1.7,10.1-4.7c2.9-3.4,4.4-7.7,4.3-12.2c0.2-4.4-1.4-8.8-4.3-12.1c-2.5-3-6.3-4.7-10.2-4.7
	H211.5z"/>
<path class="st0" d="M263.1,74.4c-4.5,0-8.9-1.3-12.6-3.9c-3.7-2.5-6.4-6-8-10.1l-0.2-0.5l8.9-3.8l0.2,0.5c1,2.6,2.7,4.8,4.9,6.5
	c2.1,1.5,4.6,2.3,7.1,2.3h0.5c2.3,0,4.6-0.7,6.5-1.9c1.8-1.1,2.6-2.4,2.6-4c0-2.8-2.2-4.9-6.8-6.3l-8.2-2.1
	c-9.5-2.4-14.4-7.1-14.4-14c-0.1-4.4,2-8.5,5.6-10.9c3.6-2.7,8.2-4.1,14-4.1h0.5c4,0,7.8,1.1,11.3,3.1c3.3,1.9,5.9,4.8,7.4,8.4
	l0.2,0.5l-8.9,3.7l-0.2-0.4c-0.9-1.9-2.4-3.5-4.3-4.6c-2-1.1-4.3-1.7-6.7-1.6c-2.1,0-4.2,0.6-6,1.7c-1.8,1.1-2.6,2.3-2.6,3.9
	c0,2.5,2.4,4.3,7.3,5.4l7.3,1.9c9.7,2.4,14.7,7.5,14.7,15c0,4.4-1.9,8-5.7,11s-8.6,4.5-14.2,4.5L263.1,74.4z"/>
<g id="_01-cart">
	<path class="st1" d="M389.3,20.4c-1.1-1.4-2.7-2.3-4.5-2.3h-68.7v11.3h61.1l-3.4,11.1h-48.8v11.3h45.4l-3.4,11.4h-50.1l-16.9-59
		c-0.7-2.4-2.9-4-5.4-4.1L280.1,0L280,11.3l10.4,0.1l16.9,59c0.7,2.4,2.9,4.1,5.4,4.1h58.6c2.5,0,4.7-1.6,5.4-4l13.5-45
		C390.7,23.7,390.4,21.8,389.3,20.4z"/>
</g>
<path class="st0" d="M-237.3-199.2c-9.6,0-18.8-3.9-25.5-10.8c-7-7-10.9-16.5-10.7-26.4c-0.2-9.9,3.7-19.5,10.8-26.4
	c6.7-6.9,15.9-10.7,25.5-10.8h0.7c5.1,0,10.1,0.9,14.8,2.8c4.4,1.7,8.3,4.4,11.5,7.8l0.3,0.4l-7.2,7.2l-0.4-0.4
	c-2.2-2.6-5-4.7-8.2-6c-3.4-1.4-7.1-2.2-10.8-2.1h-0.7c-6.9,0-13.5,2.8-18.3,7.7c-5.1,5.2-7.7,11.9-7.7,19.8
	c0,7.9,2.6,14.6,7.7,19.7c4.8,4.9,11.4,7.7,18.3,7.8h0.7c6.2,0.2,12.3-1.9,17.2-5.8c4.4-3.7,7-8.7,7.8-15.3h-25.4v-9.4h34.9l0.1,0.4
	c0.4,1.8,0.5,3.7,0.5,5.5c0,9.9-3,17.9-8.8,23.8c-6.6,7-15.4,10.6-26.2,10.6H-237.3z"/>
<path class="st0" d="M-171.9-199.2c-6.5,0-12.8-2.6-17.3-7.4c-4.8-5-7.1-11.1-7.1-18.8s2.4-13.8,7.1-18.6c4.5-4.7,10.8-7.4,17.4-7.5
	h1.4c6.5,0,12.8,2.7,17.2,7.5c4.7,4.8,7.1,11.1,7.1,18.6s-2.4,13.8-7.1,18.6c-4.6,4.8-11,7.5-17.6,7.5H-171.9L-171.9-199.2z
	 M-171.2-242.2c-3.7,0-7.3,1.4-10,3.9l-0.9,0.9c-2.9,3.1-4.3,7.2-4.3,12.1s1.4,9,4.4,12.2c2.8,3,6.7,4.7,10.8,4.7l0,0
	c3.8,0,7.5-1.5,10.3-4.1l0.6-0.6c2.9-3.1,4.3-7.2,4.3-12.1c0.2-4.5-1.4-8.8-4.4-12.2C-163.2-240.4-167.1-242.2-171.2-242.2
	L-171.2-242.2z"/>
<path class="st0" d="M-117-199.1c-6.6,0-12.9-2.7-17.4-7.5c-4.7-5-7-11.3-7-18.8s2.4-13.8,7.1-18.6c4.5-4.7,10.8-7.4,17.4-7.5h1.4
	c6.6,0,12.8,2.7,17.3,7.5c4.7,4.8,7.1,11.1,7.1,18.6s-2.3,13.7-7.1,18.8c-4.6,4.8-11,7.5-17.6,7.5H-117z M-116.3-242.2
	c-3.7,0-7.3,1.4-10,3.9l-0.9,0.8c-2.9,3.1-4.4,7.2-4.4,12.2s1.4,9,4.4,12.1c2.8,3,6.7,4.7,10.8,4.6l0,0c3.8,0,7.5-1.5,10.3-4.1
	l0.6-0.6c2.9-3.1,4.4-7.2,4.4-12.1c0.2-4.5-1.4-8.8-4.4-12.2C-108.2-240.5-112.2-242.2-116.3-242.2L-116.3-242.2z"/>
<path class="st0" d="M-63.3-199.2c-6.4,0-12.4-2.7-16.6-7.6c-4.5-5.1-6.9-11.7-6.8-18.4c-0.1-6.8,2.3-13.4,6.8-18.4
	c4.2-4.8,10.2-7.6,16.6-7.7c3.5,0,6.9,0.8,10,2.4c2.4,1.3,4.6,3.1,6.2,5.3l-0.3-5.5V-272h10v71.2H-47v-6.1c-1.7,2.3-3.9,4.1-6.4,5.4
	C-56.5-199.9-59.9-199.2-63.3-199.2z M-62.1-242.1c-3.9,0-7.6,1.7-10.1,4.7c-2.9,3.3-4.4,7.6-4.3,12.1c-0.2,4.5,1.4,8.8,4.3,12.2
	c2.7,3,6.5,4.7,10.5,4.7h0.4c3.9,0,7.6-1.7,10.1-4.7c2.9-3.4,4.4-7.7,4.3-12.1c0.2-4.4-1.4-8.8-4.3-12.1c-2.5-3-6.3-4.7-10.2-4.7
	H-62.1z"/>
<path class="st0" d="M-10.5-199.2c-4.5,0-8.9-1.3-12.6-3.9c-3.7-2.5-6.4-6-8-10.1l-0.2-0.4l8.9-3.8l0.2,0.5c1,2.6,2.7,4.8,4.9,6.4
	c2.1,1.5,4.6,2.3,7.1,2.3h0.5c2.3,0,4.6-0.7,6.5-1.9c1.8-1.1,2.6-2.4,2.6-4c0-2.8-2.2-4.9-6.8-6.3l-8.2-2.1
	c-9.5-2.4-14.4-7.1-14.4-14c-0.1-4.4,2-8.5,5.6-10.9c3.6-2.7,8.2-4.1,14-4.1h0.5c4,0,7.8,1.1,11.3,3.1c3.3,1.9,5.9,4.8,7.4,8.4
	l0.2,0.5l-8.9,3.7l-0.2-0.4c-0.9-1.9-2.4-3.5-4.3-4.6c-2-1.1-4.3-1.7-6.7-1.6c-2.1,0-4.2,0.6-6,1.7c-1.8,1.1-2.6,2.3-2.6,3.9
	c0,2.5,2.4,4.3,7.3,5.4l7.3,1.9c9.7,2.4,14.7,7.5,14.7,15c0,4.4-1.9,8-5.7,11s-8.6,4.5-14.2,4.5L-10.5-199.2z"/>
<g id="_01-cart_1_">
	<path class="st1" d="M115.7-253.2c-1.1-1.4-2.7-2.3-4.5-2.3H42.5v11.3h61.1l-3.4,11.1H51.5v11.3h45.4l-3.4,11.4H43.3l-16.9-59
		c-0.7-2.4-2.9-4-5.4-4.1l-14.6-0.1l-0.1,11.3l10.4,0.1l16.9,59c0.7,2.4,2.9,4.1,5.4,4.1h58.6c2.5,0,4.7-1.6,5.4-4l13.5-45
		C117.1-249.9,116.8-251.8,115.7-253.2z"/>
</g>
</svg>
